<svg width="184" height="35" viewBox="0 0 184 35" fill="none" xmlns="http://www.w3.org/2000/svg">
<path d="M9.16817 0.48C11.9842 0.48 14.1602 1.44 15.6962 3.36C17.2322 5.248 18.0002 8.256 18.0002 12.384V12.48C18.0002 14.592 17.8082 16.368 17.4242 17.808C17.0722 19.248 16.5282 20.416 15.7922 21.312C15.0562 22.176 14.1282 22.8 13.0082 23.184C11.8882 23.568 10.5762 23.76 9.07217 23.76H8.25617V34.08H0.576172V0.48H9.16817ZM8.25617 17.088H9.07217C9.58417 17.088 9.92017 16.96 10.0802 16.704C10.2722 16.416 10.3682 15.952 10.3682 15.312V9.024C10.3682 8.32 10.2722 7.84 10.0802 7.584C9.92017 7.296 9.58417 7.152 9.07217 7.152H8.25617V17.088Z" fill="#282828"/>
<path d="M32.1369 0.432L35.0169 34.08H27.3369L26.9529 26.448H25.2249L24.8409 34.08H17.1609L20.1849 0.432H32.1369ZM26.6169 19.776L26.3289 13.728H25.8489L25.5129 19.776H26.6169Z" fill="#282828"/>
<path d="M41.1534 0.48L41.9694 14.256H42.4974L43.2654 0.48H50.9454L46.0014 24.864V34.08H38.3214V24.864L33.4734 0.48H41.1534Z" fill="#282828"/>
<path d="M57.9894 26.304C57.9894 26.88 58.1014 27.296 58.3254 27.552C58.5494 27.776 58.8214 27.888 59.1414 27.888C59.4294 27.888 59.6854 27.776 59.9094 27.552C60.1334 27.296 60.2454 26.88 60.2454 26.304V18.192H67.9254V25.728C67.9254 28.64 67.1254 30.848 65.5254 32.352C63.9574 33.824 61.7814 34.56 58.9974 34.56C56.2454 34.56 54.1014 33.824 52.5654 32.352C51.0614 30.88 50.3094 28.672 50.3094 25.728V8.832C50.3094 5.888 51.0614 3.696 52.5654 2.256C54.1014 0.783999 56.2454 0.0479994 58.9974 0.0479994C61.7814 0.0479994 63.9574 0.799999 65.5254 2.304C67.1254 3.776 67.9254 5.952 67.9254 8.832V16.416H60.2454V8.304C60.2454 7.696 60.1334 7.28 59.9094 7.056C59.6854 6.8 59.4294 6.672 59.1414 6.672C58.8214 6.672 58.5494 6.8 58.3254 7.056C58.1014 7.28 57.9894 7.696 57.9894 8.304V26.304Z" fill="#282828"/>
<path d="M68.9657 8.832C68.9657 5.888 69.7177 3.68 71.2217 2.208C72.7577 0.736 74.9017 0 77.6537 0C80.4377 0 82.6137 0.752 84.1817 2.256C85.7817 3.728 86.5817 5.92 86.5817 8.832V25.68C86.5817 28.592 85.7817 30.8 84.1817 32.304C82.6137 33.808 80.4377 34.56 77.6537 34.56C74.9017 34.56 72.7577 33.824 71.2217 32.352C69.7177 30.848 68.9657 28.624 68.9657 25.68V8.832ZM76.6457 26.304C76.6457 26.88 76.7577 27.296 76.9817 27.552C77.2057 27.776 77.4617 27.888 77.7497 27.888C78.0697 27.888 78.3417 27.776 78.5657 27.552C78.7897 27.296 78.9017 26.88 78.9017 26.304V8.256C78.9017 7.648 78.7897 7.232 78.5657 7.008C78.3417 6.784 78.0697 6.672 77.7497 6.672C77.4617 6.672 77.2057 6.784 76.9817 7.008C76.7577 7.232 76.6457 7.648 76.6457 8.256V26.304Z" fill="#282828"/>
<path d="M105.814 0.48V34.08H97.4619L94.0539 13.968H93.6219L95.3019 34.08H87.6219V0.48H95.9739L99.5739 20.736H100.006L98.1339 0.48H105.814Z" fill="#282828"/>
<path d="M116.776 12.192V8.256C116.776 7.2 116.424 6.672 115.72 6.672C114.984 6.672 114.616 7.2 114.616 8.256V10.752C114.616 11.168 114.648 11.536 114.712 11.856C114.776 12.144 114.936 12.432 115.192 12.72C115.48 13.008 115.88 13.328 116.392 13.68C116.936 14 117.672 14.4 118.6 14.88L120.04 15.552C120.904 16 121.624 16.496 122.2 17.04C122.776 17.552 123.224 18.176 123.544 18.912C123.896 19.616 124.136 20.464 124.264 21.456C124.424 22.448 124.504 23.632 124.504 25.008V25.68C124.504 28.528 123.72 30.72 122.152 32.256C120.616 33.792 118.424 34.56 115.576 34.56C112.76 34.56 110.6 33.808 109.096 32.304C107.624 30.8 106.888 28.592 106.888 25.68V22.368H114.568V26.256C114.568 27.344 114.952 27.888 115.72 27.888C116.456 27.888 116.824 27.36 116.824 26.304V23.712C116.824 23.264 116.792 22.896 116.728 22.608C116.664 22.32 116.504 22.048 116.248 21.792C115.992 21.504 115.624 21.216 115.144 20.928C114.664 20.608 113.992 20.224 113.128 19.776L111.448 18.96C110.584 18.512 109.864 18.016 109.288 17.472C108.712 16.928 108.248 16.272 107.896 15.504C107.544 14.736 107.288 13.856 107.128 12.864C107 11.84 106.936 10.656 106.936 9.312V8.832C106.936 5.92 107.672 3.728 109.144 2.256C110.616 0.752 112.76 0 115.576 0C118.392 0 120.568 0.768 122.104 2.304C123.672 3.84 124.456 6.016 124.456 8.832V12.192H116.776Z" fill="#282828"/>
<path d="M133.272 7.152V13.104H137.88V19.776H133.272V27.408H138.024V34.08H125.592V0.48H137.976V7.152H133.272Z" fill="#282828"/>
<path d="M157.142 0.48V34.08H148.79L145.382 13.968H144.95L146.63 34.08H138.95V0.48H147.302L150.902 20.736H151.334L149.462 0.48H157.142Z" fill="#282828"/>
<path d="M174.872 7.152H170.264V34.08H162.584V7.152H157.928V0.48H174.872V7.152Z" fill="#282828"/>
<path d="M175.654 30.336C175.654 27.712 176.918 26.4 179.446 26.4C180.662 26.4 181.59 26.752 182.23 27.456C182.87 28.128 183.19 29.104 183.19 30.384C183.19 33.008 181.942 34.32 179.446 34.32C176.918 34.32 175.654 32.992 175.654 30.336Z" fill="#A5DFD5"/>
</svg>
